<svg width="200" height="200" viewBox="0 0 200 200" fill="none" xmlns="http://www.w3.org/2000/svg">
  <!-- Mask shape with cultural pattern -->
  <path d="M100 50C70 50 45 60 30 80C30 80 25 100 25 110C25 120 30 130 35 135C40 145 50 155 65 162C75 167 87 170 100 170C113 170 125 167 135 162C150 155 160 145 165 135C170 130 175 120 175 110C175 100 170 80 170 80C155 60 130 50 100 50Z" fill="url(#maskGradient)" stroke="#1a1f3a" stroke-width="2"/>
  
  <!-- Eye holes -->
  <ellipse cx="70" cy="100" rx="18" ry="12" fill="#000000"/>
  <ellipse cx="130" cy="100" rx="18" ry="12" fill="#000000"/>
  
  <!-- Cultural pattern accents (simplified) -->
  <line x1="40" y1="95" x2="55" y2="95" stroke="#a78bfa" stroke-width="2"/>
  <line x1="40" y1="105" x2="55" y2="105" stroke="#a78bfa" stroke-width="2"/>
  <line x1="145" y1="95" x2="160" y2="95" stroke="#a78bfa" stroke-width="2"/>
  <line x1="145" y1="105" x2="160" y2="105" stroke="#a78bfa" stroke-width="2"/>
  
  <!-- Diamond patterns -->
  <path d="M50 85 L52 88 L50 91 L48 88 Z" fill="#8b5cf6"/>
  <path d="M150 85 L152 88 L150 91 L148 88 Z" fill="#8b5cf6"/>
  <path d="M50 115 L52 118 L50 121 L48 118 Z" fill="#8b5cf6"/>
  <path d="M150 115 L152 118 L150 121 L148 118 Z" fill="#8b5cf6"/>
  
  <!-- Gradient definition -->
  <defs>
    <linearGradient id="maskGradient" x1="30" y1="50" x2="170" y2="170">
      <stop offset="0%" style="stop-color:#1e40af;stop-opacity:1" />
      <stop offset="50%" style="stop-color:#3730a3;stop-opacity:1" />
      <stop offset="100%" style="stop-color:#1e3a8a;stop-opacity:1" />
    </linearGradient>
  </defs>
</svg>
